<?xml version="1.0" encoding="UTF-8" standalone="no"?><!DOCTYPE svg PUBLIC "-//W3C//DTD SVG 1.1//EN" "http://www.w3.org/Graphics/SVG/1.1/DTD/svg11.dtd"><svg width="100%" height="100%" viewBox="0 0 1382 1382" version="1.1" xmlns="http://www.w3.org/2000/svg" xmlns:xlink="http://www.w3.org/1999/xlink" xml:space="preserve" xmlns:serif="http://www.serif.com/" style="fill-rule:evenodd;clip-rule:evenodd;stroke-linejoin:round;stroke-miterlimit:2;"><g id="Background"><path d="M959.977,442.458c5.439,37.597 -2.535,37.611 -7.284,43.208c-1.443,1.7 -4.625,66.465 -7.779,107.856c-1.555,20.404 -0.304,22.281 0.756,23.871c4.993,7.491 10.428,10.87 9.696,51.106c-0.454,24.961 -13.849,20.206 -13.883,29.001c-0.263,67.203 9.439,93.76 27.014,181.001c4.953,24.585 8.469,57.936 9.003,63c1.178,11.177 -0.597,23.955 3.651,28.341c13.639,14.081 11.509,39.858 15.08,83.69c4.452,54.639 -14.296,60.513 -29.635,66.278c-8.83,3.319 -13.278,-11.378 -15.046,-11.591c-0.558,-0.067 -5.381,-0.647 -6.569,2.501c-2.536,6.716 -1.529,16.178 -10.509,19.713c-1,0.394 -34.827,8.151 -39.023,7.247c-7.786,-1.679 -8.653,-16.379 -11.949,-16.159c-13.231,0.886 -11.268,4.943 -12.409,8.861c-4.317,14.813 -8.174,12.593 -26.554,14.581c-20.594,2.228 -24.435,5.472 -46.947,-4.673c-4.499,-2.028 -4.946,-0.812 -57.951,-21.149c-1.546,-0.593 -1.825,-1.117 -32.237,9.101c-3.338,1.121 -35.458,11.913 -40.904,16.252c-4.698,3.743 -0.324,18.862 -16.98,22.102c-13.448,2.615 -22.077,11.451 -29.84,-2.191c-1.438,-2.526 0.307,-5.309 -5.173,-4.855c-0.742,0.062 -8.421,0.699 -9.122,1.852c-3.743,6.162 3.376,16.594 -17.867,18.263c-25.319,1.99 -32.398,8.928 -36.754,-9.228c-1.213,-5.054 -3.18,-3.297 -13.256,-2.871c-4.061,0.172 -3.27,10.179 -8.369,14.501c-3.722,3.155 -42.192,3.255 -49.87,-1.142c-9.364,-5.363 -3.159,-14.53 -10.795,-15.029c-16.115,-1.054 -17.345,-2.788 -17.839,-0.36c-2.476,12.165 -3.762,14.504 -16.147,13.097c-15.698,-1.784 -70.961,-10.792 -74.687,-14.472c-6.318,-6.241 -4.278,-12.159 -7.504,-14.328c-3.754,-2.523 -4.863,-3.402 -7.216,0.391c-7.309,11.783 -12.935,8.075 -31.426,0.925c-64.066,-24.774 -62.724,-27.618 -82.787,-39.124c-18.752,-10.755 -14.39,-70.355 -3.388,-76.568c3.538,-1.998 4.503,-1.183 5.816,-5.03c18.802,-55.076 58.425,-57.049 98.119,-67.321c31.678,-8.198 48.897,-15.926 73.226,-27.354c2.422,-1.138 33.975,-18.149 35.115,-21.144c1.517,-3.988 -1.558,-6.354 11.496,-15.49c18.065,-12.642 35.349,-32.682 43.225,-31.489c5.039,0.763 4.655,-2.245 9.435,-6.683c9.517,-8.838 37.98,-41.801 36.671,-47.47c-3.032,-13.137 0.674,-12.919 8.808,-36.016c9.556,-27.135 18.333,-30.699 21.168,-31.85c0.938,-0.381 3.073,-0.406 2.543,-37.104c-0.322,-22.24 -2.703,-23.407 -4.477,-24.277c-6.861,-3.363 -9.588,-5.113 -15.192,-44.725c-0.27,-1.908 -1.722,-12.173 -1.957,-24.008c-0.095,-4.758 5.064,-6.609 3.657,-14.941c-2.636,-15.614 -3.544,-15.34 -6.005,-31.004c-0.635,-4.039 -11.062,-16.94 -13.999,-34.001c-0.812,-4.715 -4.373,-2.823 -10.071,-15.865c-13.242,-30.312 -37.978,-131.354 -33.498,-176.183c6.891,-68.952 10.205,-82.86 83.9,-98.24c107.528,-22.44 299.726,-21.018 330.163,1.067c6.788,4.925 19.151,9.307 28.201,45.098c10.832,42.84 14.605,102.096 15.174,111.043c0.518,8.132 1.224,8.03 5.883,14.737c4.46,6.42 4.992,23.746 5.102,25.246l-118.54,578.545c39.7,-6.701 94.599,-9.852 114.706,-37.749c9.295,-12.896 7.611,-18.171 7.367,-22.754c-2.49,-46.92 -8.723,-76.324 -17.529,-118.303c-0.685,-3.265 -16.786,11.957 -24.451,12.552c-22.691,1.761 -22.836,-9.258 -40.056,-25.22c-17.044,-15.799 -33.752,-18.678 -54.954,-28.063c-12.437,-5.506 4.451,-25.151 5.885,-27.034c21.204,-27.852 25.252,-45.46 30.024,-55.965c4.375,-9.632 -13.974,4.497 -33.069,-15.833c-5.228,-5.566 -6.156,-3.878 -13.854,-3.706c-4.814,0.108 -60.168,1.351 -60.17,1.353c-1.339,0.662 -1.496,19.075 -1.906,22.212c-3.972,30.355 -5.693,42.32 -14.539,75.103c-0.505,1.871 -0.328,3.077 21.428,11.306c18.382,6.953 28.477,14.579 34.038,11.371c22.678,-13.08 41.021,-3.161 52.378,2.764c2.464,1.286 18.39,9.594 28.807,19.421c20.626,19.457 32.168,25.321 23.43,48.227c-11.965,31.369 -17.442,38.929 -29.558,42.53c-8.395,2.495 -50.716,-6.306 -61.964,-10.585c-33.233,-12.64 -39.513,-22.778 -40.949,-39.129c-0.241,-2.739 -1.493,-2.034 -30.924,-14.159c-6.512,-2.683 -7.946,-6.488 -11.794,-0.664c-4.091,6.191 -6.23,8.072 -6.909,9.068c-8.159,11.979 -27.893,20.499 -28.211,22.805c-0.431,3.129 48.529,25.881 109.467,81.356c24.788,22.565 29.621,29.046 29.79,29.208c7.281,6.971 5.869,10.262 13.517,9.888l118.54,-578.545l-125.391,594.536c-49.355,9.244 -63.646,11.007 -136.211,39.192c-60.173,23.371 -103.961,40.449 -178.842,49.602c-64.341,7.865 -70.318,3.569 -102.054,2.057c-10.093,-0.481 -9.92,-1.425 -19.995,-2.159c-1.99,-0.145 -8.457,-2.98 -5.14,1.899c2.607,3.835 12.459,31.285 14.125,31.98c0.21,0.088 26.802,4.216 27.971,3.762c1.407,-0.548 1.774,-11.873 12.052,-13.863c0.677,-0.131 31.265,2.592 34.271,4.625c8.213,5.558 4.062,14.012 8.674,14.675c4.218,0.606 24.897,0.915 27.063,0.948c6.208,0.093 1.799,-15.797 12.989,-16.354c27.471,-1.367 32.61,-4.125 35.446,10.066c1.043,5.219 3.439,2.528 17.54,1.738c5.366,-0.301 6.329,-0.287 7.44,-5.56c2.316,-10.995 3.962,-12.062 12.591,-13.019c16.079,-1.783 21.357,-8.294 29.339,6.742c2.185,4.116 4.484,1.697 10.632,0.101c9.557,-2.481 4.606,-7.016 9.656,-16.125c3.844,-6.932 5.216,-5.946 48.458,-22.563c30.228,-11.616 70.6,-20.316 76.843,-21.661c7.283,-1.569 13.935,-6.049 26.125,8.376c2.869,3.395 16.371,29.037 19.945,30.024c2.306,0.637 13.367,-0.821 23.975,-1.342c7.893,-0.388 8.534,-2.038 8.801,-2.725c5.102,-13.127 3.299,-16.588 17.151,-19.291c10.307,-2.011 18.899,-5.973 24.718,5.55c1.285,2.545 1.361,8.953 5.43,8.214c23.194,-4.21 24.131,-4.332 25.313,-8.258c2.275,-7.555 1.192,-16.937 11.649,-18.928c15.152,-2.885 17.151,-5.224 23.734,2.975c1.441,1.795 1.863,8.07 8.05,2.63c13.03,-11.457 9.072,-23.887 7.762,-70.774c-0.011,-0.379 -3.247,-34.705 -4.082,-38.917c-0.043,-0.217 -0.635,-8.992 -5.045,-2.75c-12.389,17.538 -15.951,16.883 -25.382,23.763c-20.038,14.618 -98.087,23.408 -110.996,25.372l125.391,-594.536l-384.586,658.586c19.191,-4.386 56.869,-15.319 57.648,-16.722c2.458,-4.425 -62.782,-81.637 -108.531,-80.428c-24.701,0.653 -61.078,40.452 -154.12,15.072c-3.692,-1.007 -26.113,-7.123 -45.005,-16.224c-25.987,-12.519 -25.449,-13.547 -27.776,-14.478c-2.206,-0.882 -34.218,4.163 -49.152,44.22c-2.356,6.319 -0.28,6.719 6.835,10.422c37.644,19.587 77.392,28.219 93.256,32.403c25.744,6.789 28.274,27.542 33.18,31.901c3.045,2.705 45.879,6.718 53.783,6.908c62.499,1.502 85.247,-1.327 139.882,-13.072l384.586,-658.586l-146.918,-39.914c-2.015,-12.081 -1.92,-12.086 -2.143,-13.126c-3.445,-16.052 -2.817,-32.542 -39.477,-28.307c-43.452,5.02 -69.273,3.37 -87.863,9.61c-12.933,4.341 -12.917,4.004 -26.175,7.419c-35.19,9.063 -90.446,1.715 -128.675,-16.066c-5.326,-2.477 -5.15,-2.662 -10.42,-5.146c-10.653,-5.019 -12.58,-7.807 -12.552,-4.41c0.121,14.953 0.807,15.53 4.96,17.509c11.913,5.678 11.939,5.581 12.969,6.083c3.046,1.484 18.284,8.906 39.714,14.71c24.702,6.69 31.757,5.504 39.327,47.644c13.374,74.447 8.314,85.668 8.228,86.118c-2.476,12.891 -7.897,22.332 -47.508,16.383c-9.014,-1.354 -13.77,-4.65 -11.346,0.702c4.392,9.701 2.571,11.682 12.211,16.229c37.118,17.505 80.234,9.53 95.128,5.31c51.518,-14.598 70.471,-38.301 73.957,-41.808c10.892,-10.958 10.176,-23.49 9.938,-23.761c-0.622,-0.709 -8.128,-0.774 -8.837,-0.78c-16.648,-0.143 -17.487,-1.635 -18.678,-0.116c-4.123,5.26 -3.058,11.235 -22.316,11.686c-34.864,0.818 -33.889,-11.867 -36.393,-26.88c-8.866,-53.166 -0.923,-58.636 3.13,-61.427c9.765,-6.725 34.542,-5.58 35.235,-5.466c10.627,1.753 11.819,4.053 14.378,8.638c3.969,7.111 6.278,4.568 17.657,5.039c7.039,0.292 59.034,2.447 88.059,0.405c2.767,-0.195 -1.582,-16.829 -2.506,-26.191l146.918,39.914l-310.044,592.63c12.561,15.094 12.904,14.711 24.072,30.801c3.143,4.528 4.369,2.04 13.484,-1.411c46.156,-17.474 73.192,-29.322 125.923,-38.471c6.022,-1.045 6.254,-0.841 6.349,-1.352c0.382,-2.046 -29.845,-30.282 -32.672,-32.684c-45.519,-38.683 -45.661,-38.55 -102.89,-75.994c-7.658,-5.01 -8.675,-7.25 -16.02,-1.875c-14.062,10.29 -14.946,8.919 -51.508,34.651c-24.425,17.19 -36.102,23.007 -18.867,37.395c29.756,24.841 48.26,44.066 52.128,48.941l310.044,-592.63l-368.899,557.535c-3.569,-3.102 -3.512,-2.997 -6.816,-6.249c-2.005,-1.973 -18.644,-18.351 -4.368,-34.886c2.493,-2.888 8.852,-10.253 37.692,-29.223c45.177,-29.715 45.013,-29.867 79.576,-53.609c2.232,-1.533 15.597,-15.487 14.043,-17.257c-2.882,-3.284 -8.837,2.012 -9.793,2.54c-6.475,3.584 -12.609,-3.506 -20.823,2.324c-2.011,1.428 -45.466,28.044 -75.804,48.304c-19.96,13.329 -33.933,31.198 -51.22,46.641c-15.887,14.192 -19.117,9.378 -36.843,-2.412c-16.372,-10.889 -19.3,-11.33 -31.393,-17.337c-12.452,-6.185 -31.988,-14.759 -34.78,-13.256c-3.007,1.619 -2.143,2.935 -27.899,17.21c-28.836,15.982 -44.578,21.037 -67.166,28.676c-19.775,6.687 -37.756,9.708 -37.965,10.049c-0.355,0.579 -0.545,1.388 7.167,4.559c24.552,10.095 80.155,36.871 139.741,22.146c34.351,-8.489 44.959,-26.978 82.218,-15.159c4.417,1.401 23.273,7.382 49.982,29.281c38.654,31.691 47.392,52.229 51.123,55.914c1.282,1.266 13.277,-2.846 13.191,-4.785c-0.099,-2.241 -23.098,-29.8 -23.337,-30.06c-20.798,-22.671 -28.316,-27.565 -46.527,-43.411l368.899,-557.535l-204.475,192.589c14.763,0.127 66.304,-0.627 67.775,-1.835c3.219,-2.645 0.814,-12.784 22.251,-20.631c5.796,-2.122 22.933,-3.357 24.942,-3.502c7.899,-0.569 -1.103,-15.019 17.092,-36.525c17.209,-20.341 29.031,-50.026 29.9,-69.051c0.16,-3.505 -5.197,2.735 -33.942,7.168c-24.011,3.702 -40.078,-4.213 -43.206,-5.754c-5.491,-2.705 4.858,13.456 -19.053,37.347c-37.512,37.48 -79.056,41.139 -79.498,48.213c-0.007,0.118 3.867,17.396 4.206,18.909c3.944,17.589 3.268,17.625 3.897,23.064c0.425,3.677 1.992,2.236 5.636,2.598l204.475,-192.589l-329.425,-190.466c-15.235,2.024 -57.077,5.83 -90.973,18.73c-15.005,5.711 -12.856,8.807 -12.079,9.777c0.591,0.739 35.996,32.563 145.949,14.574c7.995,-1.308 32.155,-7.014 52.029,-9.731c31.749,-4.34 88.276,-13.081 95.944,-14.267c5.292,-0.818 44.051,-6.812 65.423,-14.153c5.753,-1.976 -5.731,-2.995 -7.367,-3.314c-17.115,-3.342 -83.641,-16.333 -217.931,-4.651c-19.487,1.695 -28.52,2.747 -30.995,3.035l329.425,190.466l-450.998,-118.903c-0.696,9.319 -1.386,10.148 2.173,12.417c47.005,29.959 95.148,31.526 127.333,30.189c14.253,-0.592 26.401,-6.485 58.113,-14.309c6.667,-1.645 17.21,-3.787 9.007,-26.395c-2.259,-6.225 -8.181,-17.879 -11.111,-17.784c-9.486,0.306 -118.105,25.622 -176.169,-13.899c-5.536,-3.768 -4.489,1.191 -5.825,7.725c-0.358,1.751 -0.645,3.154 -3.52,22.055l450.998,118.903l-299.508,260.479c-46.367,-1.602 -69.534,-13.187 -73.192,-11.889c-1.824,0.647 2.021,19.637 -0.332,49.501c-0.434,5.511 1.088,5.323 4.565,5.869c25.008,3.924 61.969,16.51 84.055,20.66c50.246,9.442 50.835,19.644 52.035,15.47c10.995,-38.254 11.678,-73.577 11.803,-80.049c0.055,-2.864 -0.971,-2.727 -6.867,-3.295c-3.6,-0.347 -1.45,2.76 -7.695,8.691c-7.9,7.503 -50.582,-3.094 -64.373,-4.958l299.508,-260.479l-433.989,31.956c6.396,18.255 9.384,43.775 20.406,47.388c26.021,8.53 38.681,6.671 47.075,4.598c4.673,-1.154 3.584,-13.43 2.706,-29.876c-0.346,-6.477 -5.223,-42.364 -7.102,-51.969c-7.204,-36.823 -12.919,-34.137 -13.47,-34.334c-0.294,-0.105 -44.44,-12.881 -63.008,-22.884c-1.689,-0.91 -4.953,-4.01 -3.847,1.103c0.807,3.731 -0.072,3.832 8.149,47.016c3.025,15.888 4.769,19.738 9.091,38.958l433.989,-31.956l-106.122,327.268c-8.226,14.145 -18.128,20.303 -13.476,22.044c18.336,6.859 18.957,5.378 33.785,14.198c36.952,21.978 32.533,43.277 50.229,31.358c1.451,-0.977 17.027,-11.47 16.934,-13.828c-0.199,-5.02 -15.301,-63.253 -14.727,-118.996c0.049,-4.732 -2.483,-2.051 -6.986,-0.613c-19.369,6.187 -19.151,6.72 -39.047,10.987c-3.861,0.828 0.837,4.328 -20.683,44.816c-4.172,7.849 -4.414,7.611 -6.028,10.035l106.122,-327.268l-358.578,386.499c-0.553,-0.112 -0.548,-0.048 -6.925,-1.327c-2.798,-0.561 -25.597,-5.136 -35.036,-6.68c-6.817,-1.115 -5.215,6.233 -31.355,36.187c-5.618,6.437 -15.725,14.233 -11.727,15.657c21.21,7.553 20.776,8.445 37.379,17.253c27.497,14.588 27.309,19.362 32.988,15.81c12.804,-8.008 16.906,-11.091 18.126,-11.869c62.039,-39.549 63.038,-39.122 62.886,-40.554c-0.115,-1.08 -0.625,-0.647 -12.379,-5.568c-26.433,-11.067 -26.191,-11.684 -53.954,-18.909l358.578,-386.499l-626.589,644.48c-5.651,-1.266 -33.502,-7.507 -68.688,-22.862c-0.921,-0.402 -10.314,-4.501 -11.393,-5.274c-5.586,-4.002 -12.039,-7.117 -13.629,-8.508c-2.807,-2.456 -3.703,-1.235 -4.821,2.324c-1.848,5.886 -1.518,27.017 -0.941,34.853c0.85,11.566 7.104,13.41 16.758,19.755c14.046,9.233 73.606,32.547 77.952,33.886c5.266,1.622 4.672,-1.034 8.971,-4.478c3.049,-2.442 3.001,-2.483 3.267,-2.692c11.737,-9.232 26.371,9.703 27.167,11.778c1.955,5.099 1.124,6.374 6.478,7.737c12.671,3.223 13.141,2.952 13.511,1.924c0.212,-0.589 -9.853,-23.524 -10.93,-25.69c-16.719,-33.634 -16.619,-37.22 -43.703,-42.754l626.589,-644.48l-30.949,-94.893c-3.059,-20.324 -2.144,-20.907 -3.756,-21.597c-0.469,-0.201 -34.173,15.511 -81.749,24.705c-27.037,5.225 -31.302,4.128 -28.646,7.575c5.787,7.512 6.339,10.957 9.32,23.335c2.796,11.611 6.068,36.001 6.117,36.097c0.73,1.438 1.063,0.19 3.57,-1.739c24.459,-18.825 72.862,-11.791 97.683,-7.892c4.784,0.751 2.784,-2.893 -2.538,-60.483l30.949,94.893l-186.525,-96.407c50.007,-5.245 84.607,-13.083 85.675,-14.749c1.552,-2.421 -4.393,-25.087 -5.658,-28.793c-7.919,-23.21 -13.24,-18.699 -15.053,-18.364c-16.937,3.132 -112.9,15.473 -125.919,18.345c-2.641,0.583 -0.207,2.731 1.605,6.217c15.859,30.512 5.91,36.605 8.682,40.615c1.381,1.997 45.979,-2.69 50.668,-3.272l186.525,96.407l-355.373,173.556c92.949,18.421 111.81,-5.435 123.581,14.671c0.255,0.435 2.314,3.953 5.438,3.179c3.67,-0.91 -6.06,-40.983 -10.504,-50.201c-0.722,-1.498 -1.266,-3.35 -10.463,-24.257c-1.019,-2.315 -1.756,-0.579 -8.973,2.573c-0.659,0.288 -25.267,14.136 -57.111,18.998c-19.942,3.045 -19.917,3.507 -40.079,2.742c-16.558,-0.628 -33.222,-6.244 -36.006,-7.182c-0.993,-0.334 -5.764,-3.105 -5.337,-0.019c0.291,2.103 1.106,1.908 5.507,25.962c1.117,6.107 2.999,4.826 8.898,6.844c1.962,0.672 6.927,2.37 25.049,6.69l355.373,-173.556l-243.55,0.536c-3.515,0.685 -2.391,1.944 -1.897,5.503c1.279,9.22 0.958,29.638 1.604,31.199c1.278,3.091 52.767,2.609 57.36,2.566c30.493,-0.285 94.468,-4.231 96.752,-6.952c1.516,-1.806 -0.387,-27.249 -1.044,-32.75c-0.349,-2.922 -8.13,-1.611 -8.733,-1.556c-51.639,4.703 -128.347,4.843 -144.042,1.99l243.55,-0.536l-127.503,240.616c19.87,-1.874 33.185,-2.548 33.958,-2.843c3.182,-1.216 2.053,-18.219 0.929,-31.714c-0.405,-4.865 -9.166,-1.401 -34.854,-0.592c-1.999,0.063 -18.914,0.596 -24.982,0.964c-49.685,3.011 -72.055,-0.821 -74.946,0.804c-0.954,0.536 -0.827,5.333 -0.815,5.801c0.691,26.201 -1.382,28.585 2.755,28.724c47.168,1.59 47.11,0.951 97.955,-1.144l127.503,-240.616l-108.428,50.147c-0.266,0.539 -0.532,1.079 -0.797,1.618c16.031,3.326 26.005,5.166 62.734,-6.766c4.428,-1.438 29.422,-11.172 31.603,-14.264c1.506,-2.135 3.135,-4.446 0.013,-32.659c-1.311,-11.845 1.055,-15.718 -10.653,-17.634c-4.619,-0.756 -41.324,-4.275 -44.92,-4.62c-3.416,-0.328 -24.13,-2.314 -42.349,6.81c-13.126,6.573 25.717,-4.528 32.944,4.74c1.777,2.279 5.426,6.959 5.785,35.662c0.227,18.219 -0.155,24.526 -25.387,26.269c-0.719,0.05 -4.944,0.341 -8.971,0.846l108.428,-50.147l-174.474,54.468c-26.324,0.031 -26.342,1.232 -26.57,1.718c-0.613,1.308 2.418,1.942 -3.926,17.627c-6.758,16.709 -30.676,31.099 -30.049,34.151c0.007,0.035 9.261,22.847 10.426,23.283c1.552,0.581 82.169,-26.041 87.722,-64.246c1.958,-13.47 0.489,-13.811 -0.616,-13.807c-2.961,0.012 -2.914,1.022 -36.986,1.274l174.474,-54.468l-89.494,258.594c14.943,-1.536 15.752,-0.155 48.991,-12.614c25.02,-9.378 21.061,-15.239 20.902,-25.937c-0.445,-29.941 -2.113,-31.891 -10.981,-33.545c-59.839,-11.164 -85.392,-2.243 -87.687,2.618c-2.371,5.023 25.021,-7.127 36.424,4.293c7.856,7.868 4.371,46.507 3.526,49.676c-3.508,13.168 -34.063,9.34 -35.956,10.407c-1.763,0.994 -0.582,5.011 24.78,5.102l89.494,-258.594l-109.39,475.555c15.665,1.902 17.056,2.424 21.374,-4.169c0.344,-0.526 19.214,-30.803 14.262,-40.18c-0.627,-1.187 -15.166,-17.813 -35.973,-31.759c-24.308,-16.293 -49.34,-15.058 -37.613,-10.736c24.294,8.954 34.073,10.59 23.635,34.227c-11.91,26.969 -15.867,38.663 -31.924,31.462c-1.64,-0.736 -10.758,-4.825 -20.844,-8.394c-5.52,-1.953 4.36,16.346 49.047,25.715c16.664,3.494 16.593,3.533 18.037,3.835l109.39,-475.555l-482.133,454.502c-1.402,1.063 -16.873,12.794 -17.334,13.548c-2.423,3.968 3.631,0.019 52.15,25.648c14.256,7.53 23.515,18.123 26.69,15.162c16.067,-14.983 16.408,-14.489 32.248,-29.72c2.633,-2.532 0.957,-4.651 -37.858,-25.537c-2.172,-1.169 -33.939,-15.45 -38.374,-13.893c-2.786,0.978 -6.82,6.334 -17.521,14.793l482.133,-454.502l-227.315,409.598c70.239,27.876 69.713,29.071 75.839,31.44c1.951,0.755 3.099,0.899 8.273,-9.865c9.563,-19.894 9.034,-20.781 7.498,-21.802c-1.727,-1.149 -1.905,-0.708 -46.605,-19.732c-3.917,-1.667 -46.92,-19.969 -49.199,-20.284c-0.385,-0.053 -1.969,-0.272 -3.334,3.533c-4.888,13.626 -5.049,13.485 -9.982,27.043c-1.038,2.852 1.085,2.2 17.511,9.668l227.315,-409.598l-331.954,370.981c0.349,-3.162 2.507,-22.747 14.211,-37.136c2.237,-2.75 -0.403,-2.41 -3.829,-3.504c-9.875,-3.153 -10.031,-2.339 -19.904,-5.305c-9.59,-2.881 -32.663,-7.312 -34.074,-7.498c-11.142,-1.465 -11.942,0.777 -18.532,15.677c-1.002,2.266 -11.58,26.184 -11.346,28.82c0.066,0.748 0.227,1.117 9.035,2.551c42.505,6.922 42.297,7.647 61.928,13.407c2.314,0.679 1.652,-0.869 2.513,-7.011l331.954,-370.981l-297.298,392.568c27.209,10.438 30.068,16.444 35.467,7.256c1.743,-2.966 6.17,-10.5 16.166,-39.842c1.873,-5.497 3.132,-6.884 -1.998,-9.583c-10.78,-5.672 -50.385,-15.43 -53.672,-13.139c-12.895,8.99 -20.367,42.693 -13.939,46.397c6.089,3.509 8.089,4.138 17.976,8.912l297.298,-392.568l-296.428,246.626c21.983,3.348 52.042,10.083 53.432,4.547c0.149,-0.594 0.736,-41.27 -0.917,-50.04c-1.418,-7.527 -3.899,-5.966 -11.558,-5.832c-27.907,0.485 -27.874,0.988 -42.019,0.133c-2.044,-0.124 -8.003,-2.636 -10.613,14.652c-2.279,15.098 4.333,34.571 9.59,36.053c0.687,0.194 1.398,0.294 2.084,0.488l296.428,-246.626l-349.553,189.52c-23.819,-2.923 -41.194,-11.929 -42.972,-11.708c-3.245,0.403 5.33,46.231 6.427,49.073c2.288,5.928 55.63,17.12 66.641,17.288c2.72,0.041 -0.333,-4.45 -2.108,-15.116c-4.796,-28.823 8.056,-34.771 -0.958,-35.558c-11.42,-0.998 -11.364,-1.126 -27.03,-3.978l349.553,-189.52l-37.977,-136.89c-5.428,-27.398 -13.696,-37.458 -13.916,-37.788c-4.186,-6.258 -5.414,3.011 -47.606,11.65c-3.196,0.654 3.927,7.528 9.524,27.224c4.556,16.034 2.703,21.43 6.474,20.639c14.614,-3.065 33.64,-11.461 37.051,-12.739c6.634,-2.485 8.928,-1.88 8.474,-8.987l37.977,136.89l-29.95,158.019c0.23,-11.767 5.326,-98.875 6.015,-103.031c0.635,-3.829 -3.699,-2.583 -3.952,1.043c-0.919,13.183 -1.012,13.11 -3.416,26.046c-2.983,16.053 -19.273,45.199 -32.053,60.065c-7.229,8.409 -8.38,23.086 -7.902,23.736c0.451,0.613 26.343,2.724 36.801,5.057c5.419,1.209 3.601,-2.224 4.507,-12.915l29.95,-158.019l-289.998,23.984c3.329,22.199 2.627,24.693 10.543,25.894c7.109,1.079 19.275,2.412 19.891,-1.853c1.189,-8.226 -0.052,-59.77 -4.796,-61.292c-0.906,-0.291 -25.851,-0.106 -27.388,4.197c-1.389,3.889 1.467,30.422 1.75,33.055l289.998,-23.984l-160.939,679.338c-5.574,-8.283 -5.153,-8.512 -5.668,-9.207c-5.607,-7.565 -6.981,-6.974 -15.985,-4.467c-7.088,1.974 -19.052,2.871 -12.749,4.99c3.007,1.011 3,0.779 6.041,1.927c2.297,0.867 20.536,7.748 28.781,10.638c3.65,1.279 -0.227,-3.635 -0.42,-3.88l160.939,-679.338Z" style="fill:#080908;"/><path d="M678.01,472.553c-0.496,-3.751 -0.517,-3.725 -0.536,-4.052c-1.519,-27.402 -2.002,-30.126 4.043,-31.952c10.937,-3.304 10.11,17.425 10.245,21.942c0.467,15.62 4.031,28.03 -5.261,28.13c-10.14,0.11 -8.48,-13.811 -8.491,-14.069Z" style="fill:#080907;"/><path d="M684.051,813.329c4.353,-11.129 6.278,-21.07 15.355,-18.537c8.084,2.255 1.95,15.605 1.386,16.833c-8.47,18.437 -9.627,29.673 -18.353,27.122c-9.541,-2.788 -3.544,-12.422 1.612,-25.418Z" style="fill:#020202;"/><path d="M707.835,654.515c-0.057,25.496 1.894,37.134 -8.348,35.054c-2.486,-0.505 -7.476,0.005 -6.223,-32.077c0.252,-6.458 0.05,-14.93 8.254,-14.269c3.366,0.271 5.003,2.986 5.145,3.168c1.779,2.287 1.169,7.477 1.172,8.124Z" style="fill:#070706;"/><path d="M935.365,627.524c-0.345,-0.004 -0.52,0.575 -0.865,0.571c-0.806,-0.01 -1.378,-1.42 -1.111,-1.727c1.07,-1.229 1.255,-0.28 1.977,1.156Z" style="fill:#20201f;"/><path d="M851.549,492.605c-0.266,0.539 -0.532,1.079 -0.797,1.618c-0.009,-0.309 -0.571,-0.415 -0.58,-0.723c0,0 1.267,-0.823 1.377,-0.895Z" style="fill:#a3a4a3;fill-opacity:0.92;"/></g></svg>