<?xml version="1.0" encoding="UTF-8" standalone="no"?><!DOCTYPE svg PUBLIC "-//W3C//DTD SVG 1.1//EN" "http://www.w3.org/Graphics/SVG/1.1/DTD/svg11.dtd"><svg width="100%" height="100%" viewBox="0 0 274 274" version="1.1" xmlns="http://www.w3.org/2000/svg" xmlns:xlink="http://www.w3.org/1999/xlink" xml:space="preserve" xmlns:serif="http://www.serif.com/" style="fill-rule:evenodd;clip-rule:evenodd;stroke-linejoin:round;stroke-miterlimit:2;"><g id="Background"><path d="M190.225,29.553c3.539,9.498 2.096,9.779 2.477,12.351c0.092,0.618 0.726,0.393 2.454,7.415c3.575,14.53 5.021,29.186 5.682,33.153c0.261,1.439 -0.05,1.586 0.961,2.673c1.45,1.559 3.74,12.181 1.931,15.277c-0.274,0.469 0.22,4.456 0.585,6.266c0.748,4.485 1.066,4.452 1.086,16.088c0.006,3.481 1.633,7.792 -0.053,10.844c-0.359,0.649 -0.768,6.995 -0.807,7.605c-0.577,-0.011 -0.779,-0.059 -0.756,0.513c0.108,2.667 0.011,2.665 0.021,2.897c-0.639,1.671 -0.44,1.944 -0.34,2.08c0.476,0.65 0.329,1.049 0.573,1.594c0.288,0.953 0.382,3.071 1.665,5.581c2.302,4.505 -0.303,6.695 1.329,14.731c0.52,2.561 0.603,2.874 0.668,3.121c0.808,3.065 -0.596,3.301 1.334,9.477c0.672,2.152 4.923,17.803 5.187,19.511c0.16,1.033 0.544,5.54 1.089,8.158c0.053,0.254 0.317,4.845 0.341,5.266c0.041,0.718 0.248,0.693 0.785,8.959c0.015,0.232 0.032,0.225 0.248,2.889c0.581,3.274 0.342,3.66 0.939,7.389c0.391,2.442 0.38,4.844 0.378,5.266c-0.008,1.774 -0.342,2.761 -0.45,3.402c-0.896,4.078 -3.277,4.289 -6.782,5.244c-2.211,0.602 -18.36,1.415 -20.545,1.814c-1.196,0.219 -9.054,0.372 -9.995,0.081c-3.927,-1.215 -2.582,-2.627 -5.724,-11.884c-3.534,-10.412 -2.885,-10.904 -3.756,-14.986c0.31,-0.351 0.383,-0.306 0.432,-0.79c0.01,-0.094 0.968,-1.939 -0.776,-1.309c-0.79,-5.836 -0.857,-5.821 -2.962,-11.12c-0.385,-0.97 -1.131,-5.035 -1.212,-5.476c-0.027,-0.848 -0.164,-5.09 -2.55,-10.299c-1.076,-2.349 -2.844,-1.518 -4.953,-10.008c-2.125,-8.554 -3.59,-11.136 -5.664,-27.099c-0.062,-0.479 0.096,-1.089 -0.074,-2.366c-0.634,-4.748 -4.658,-18.645 -5.336,-22.418c0.609,-0.324 1.431,-0.392 0.871,-1.458c-0.199,-0.379 -0.038,-0.681 -0.425,-0.521c-0.496,0.206 -0.464,-0.03 -0.884,-0.355c-0.191,-1.066 -1.427,-7.962 -3.079,-13.176c-0.47,-1.484 -1.069,0.678 -1.888,2.336c-5.214,10.636 -5.119,10.681 -5.186,10.838c-0.545,1.187 -0.413,1.226 -0.992,2.399c-5.2,10.845 -5.064,10.894 -10.523,21.604c-1.514,3.26 -1.91,3.234 -1.622,6.795c0.26,3.212 -1.359,3.287 -0.19,6.27c0.189,0.481 1.041,2.656 1.033,6.376c-0.01,4.592 2.276,7.695 4.019,13.456c0.521,1.723 1.714,3.865 3.049,8.649c0.736,2.638 4.276,18.822 4.529,20.278c0.421,2.417 1.617,8.008 1.766,8.702c0.017,0.079 -0.04,0.076 0.876,7.361c0.757,6.825 0.295,7.851 -5.696,10.467c-2.168,0.947 -6.719,2.164 -7.312,2.322c-6.676,1.689 -6.763,0.984 -10.553,1.49c-1.546,0.207 -18.241,0.567 -21.111,-5.55c-1.935,-4.124 -1.223,-17.034 -3.818,-22.186c-1.785,-3.544 -1.776,-5.996 -1.774,-6.537c0.012,-3.21 0.305,-3.258 -0.692,-6.322c-0.163,-0.502 -0.899,-3.564 -1.544,-5.281c-0.033,-0.088 -1.354,-4.559 -1.471,-4.955c-2.722,-9.212 -1.943,-9.419 -2.722,-11.125c-1.418,-3.103 -2.931,-5.219 -4.97,-12.639c-1.423,-5.179 -2.096,-7.762 -2.023,-17.352c0.001,-0.094 0.004,-0.093 0.465,-4.468c0.112,-1.06 1.57,-12.03 4.703,-20.261c0.201,-0.529 0.485,-1.46 0.525,-1.588c0.151,-0.496 -0.075,-0.57 -0.153,-0.726c-1.102,-0.996 -0.448,-1.885 0.407,-5.6c0.796,-3.461 0.672,-3.482 1.852,-6.843c0.154,-0.439 1.333,-5.247 2.489,-9.262c0.687,-2.386 0.442,-2.667 0.292,-2.839c-1.433,-1.646 -0.657,-2.25 0.756,-7.699c2.604,-6.573 2.686,-6.593 4.502,-8.213c0.23,-0.206 3.053,-6.918 5.676,-16.491c2.526,-9.218 5.011,-20.764 7.029,-26.361c0.575,-1.595 -0.336,-1.551 -0.384,-2.892c-0.233,-6.504 2.29,-11.721 4.318,-12.664c3.796,-1.766 23.769,-5.94 48.468,-5.028c2.708,0.1 8.244,0.648 8.959,0.719c1.916,0.19 20.202,2.001 23.61,4.698c0.784,0.62 1.247,1.522 1.387,1.74l-50.441,48.772c-0.202,0.336 -1.295,2.161 -3.474,3.46c-4.202,2.506 -6.06,2.812 -6.632,2.907c-1.193,0.197 -0.367,0.708 0.153,1.788c2.936,6.091 8.79,11.968 11.153,15.232c1.49,2.138 1.713,1.987 2.719,4.172c0.901,1.78 1.463,2.812 2.62,6.867c0.253,0.861 2.891,9.841 2.966,10.824c0.111,1.444 2.565,12.614 2.75,13.166c0.504,1.509 0.809,-0.729 7.352,-3.251c10.274,-3.959 18.228,-2.464 18.383,-2.658c0.676,-0.844 -3.645,-0.381 -5.346,-1.582c-0.603,-0.426 -1.53,-5.535 -1.545,-5.69c-1.108,-11.292 -4.325,-32.718 -3.174,-34.413c1.803,-2.655 7.452,-1.612 7.167,-2.962c-1.854,-8.791 -2.329,-14.531 -9.442,-35.556c-0.989,-2.922 -1.385,-3.059 -2.868,-2.73c-6.905,1.535 -16.603,2.685 -17.876,2.821c-1.929,0.206 -2.577,-0.16 -2.793,1.752c-0.328,2.908 -0.414,2.88 -0.781,5.791c-0.364,2.889 -0.035,2.901 -0.411,5.779c-0.803,6.149 0.71,10.982 -0.921,14.283l50.441,-48.772l-65.615,51.626c-2.318,-9.926 -0.784,-13.297 -0.276,-28.461c0.052,-1.553 0.539,-2.099 -0.969,-2.433c-3.741,-0.826 -3.647,-1.069 -3.973,-1.122c-2.643,-0.431 -5.992,-1.979 -6.599,-1.743c-0.603,0.234 -5.459,15.16 -5.931,16.652c-3.335,10.553 -3.008,10.632 -3.305,11.546c-2.906,8.929 -3.375,9.938 -3.76,10.765c-0.539,1.159 0.212,1.003 1.437,1.326c3.398,0.897 2.417,3.228 1.944,4.554c-4.572,12.827 -5.315,13.905 -7.985,20.516c-0.345,0.976 -3.47,7.995 -4.28,10.243c-1.602,4.443 -3.002,2.964 -6.531,3.741c-0.331,0.073 -0.814,0.679 0.252,0.722c10.972,0.437 14.275,1.577 23.23,5.435c7.142,3.077 6.647,3.976 7.3,4.132c1.165,0.278 -0.171,-1.142 9.965,-21.679c3.46,-6.695 5.77,-10.221 6.33,-11.074c0.361,-0.533 0.377,-0.496 0.731,-1.077c2.238,-3.672 3.22,-3.991 1.663,-5.705c-0.347,-0.46 -0.743,-0.957 -0.809,-1.039c-2.334,-2.982 -6.815,-8.863 -8.434,-15.298l65.615,-51.626l-93.084,208.775c0.548,0.724 0.58,0.673 1.239,1.305c1.266,0.632 1.258,0.608 2.596,1.062c3.928,0.952 6.521,1.801 15.256,1.545c0.488,-0.014 5.462,-0.57 6.559,-0.812c0.911,-0.201 0.13,-3.548 -0.353,-8.027c-0.052,-0.478 -0.641,-3.399 -0.7,-3.694c-0.122,-0.605 0.175,-0.626 -1.129,-7.628c-1.149,-6.165 -2.152,-15.828 -5.269,-22.08c-0.064,-0.128 -1.293,-1.238 -4.681,-16.904c-1.547,-7.153 -1.167,-7.197 -1.783,-14.496c-0.932,-11.046 3.127,-12.042 -0.095,-14.653c-4.27,-3.462 -4.14,-3.643 -8.92,-6.332c-11.785,-6.628 -22.103,-5.013 -20.203,-3.009c1.028,1.084 2.57,-1.847 13.367,1.965c5.407,1.909 5.089,5.836 5.036,6.491c-0.469,5.81 -3.779,6.9 0.739,17.408c0.441,1.026 2.176,3.959 1.774,7.338c-0.333,2.799 -4.483,5.104 -8.812,3.901c-0.964,-0.268 -1.101,0.132 -5.501,-2.137c-1.918,-0.989 -3.232,-2.929 -3.238,-2.019c-0,0.046 2.37,5.095 2.708,5.496c0.923,1.096 8.381,6.013 14.926,3.601c4.455,-1.642 5.468,-4.896 6.367,-5.4c0.027,-0.015 0.004,-0.005 1.83,-0.571c2.026,-0.627 -0.749,6.481 -8.131,8.574c-8.978,2.546 -14.685,-3.553 -14.234,-1.692c2.925,12.046 5.805,15.842 5.5,23.178c-0.186,4.455 3.261,6.003 3.571,15.797c0.038,1.207 0.26,1.18 0.275,3.693c0.003,0.561 0.818,6.291 0.833,6.343c0.039,0.14 0.338,1.215 0.474,1.756l93.084,-208.775l12.779,133.781c0.278,-4.869 0.941,-6.929 -1.153,-7.452c-4.669,-1.167 -5.922,-2.932 -9.552,-4.546c-13.248,-5.888 -21.724,-4.455 -29.914,-1.041c-0.369,0.154 -6.539,3.764 -6.229,5.681c0.545,3.362 0.272,3.375 0.544,4.486c0.687,2.798 1.133,7.459 1.746,9.705c0.214,0.785 2.561,9.374 2.72,9.798c1.262,3.37 0.874,8.644 5.398,9.851c3.931,1.048 8.117,2.979 17.085,2.379c3.489,-0.233 11.352,-3.496 12.585,-4.224c2.37,-1.399 -0.828,-4.158 -0.835,-7.78c-0.005,-2.382 2.418,-1.218 7.118,-7.45c2.152,-2.853 0.501,-3.24 0.487,-9.407l-12.779,-133.781l-20.919,171.184c0.095,1.162 0.48,2.707 0.49,2.884c0.189,3.39 1.192,5.976 1.635,6.907c1.814,3.808 2.344,11.713 3.218,15.24c1.057,5.468 1.586,6.961 2.582,9.509c2.687,6.87 2.42,10.167 3.345,10.908c0.904,0.724 11.375,-0.753 13.616,-0.791c5.949,-0.101 5.914,-0.309 14.214,-1.044c1.358,-0.12 0.806,-1.861 0.384,-4.401c-0.305,-1.835 -0.232,-1.816 -0.48,-3.658c-1.041,-7.734 -1.08,-8.644 -2.34,-12.363c-2.869,-8.469 -3.137,-19.101 -3.548,-21.104c-0.73,-3.554 -0.463,-3.6 -1.191,-6.019c-1.019,-3.389 -2.172,-7.822 -3.291,-7.034c-1.266,0.892 -1.219,0.937 -2.627,1.599c-1.485,0.698 -1.5,0.592 -2.191,0.902c-3.048,1.368 -3.028,1.368 -6.29,2.196c-7.156,1.815 -17.489,-0.577 -19.22,-1.424c-2.025,-0.991 0.324,0.958 1.694,7.692l20.919,-171.184l2.998,25.778c-1.478,-6.855 -2.369,-10.159 -3.073,-11.515c-0.254,-0.49 -0.842,-0.292 -4.384,0.225c-11.188,1.631 -11.133,1.817 -12.106,1.942c-0.421,0.054 -6.597,1.158 -6.616,1.176c-0.757,0.708 4.368,11.359 8.018,28.197c0.868,3.526 2.02,10.662 2.089,10.74c0.343,0.386 14.369,-1.358 18.883,-1.398c1.322,-0.077 2.196,0.38 1.781,-0.882c-0.501,-1.522 -0.349,-8.508 -4.591,-28.485l-2.998,-25.778l-70.867,155.697c-3.258,-1.868 -5.124,-3.07 -5.561,-3.351c-1.59,-1.024 -0.576,0.644 -0.342,2.497c0.021,0.166 2.634,10.999 3.157,12.342c0.602,1.546 2.311,4.134 3.526,9.275c0.287,1.214 4.495,23.812 4.912,28.951c0.064,0.792 0.091,0.76 0.783,4.993c0.182,1.114 1.055,0.509 5.706,-1.229c5.595,-2.09 4.449,-3.501 4.355,-6.124c-0.345,-9.691 -3.893,-22.042 -4.247,-24.48c-0.135,-0.927 -1.466,-5.779 -1.828,-8.17c-0.199,-1.316 -1.868,-8.14 -2.422,-9.285c-0.036,-0.074 -0.033,-0.069 -0.443,-0.929c-0.597,-0.377 -0.64,-0.299 -7.598,-4.489l70.867,-155.697l-108.956,141.372c0.107,0.168 0.215,0.335 0.322,0.503c0.79,0.932 0.724,0.951 1.521,1.851c0.935,0.913 5.306,5.786 11.261,6.01c1.889,0.071 3.544,-1.208 3.586,-2.007c0.243,-4.578 -5.824,-11.99 -3.66,-19.504c1.647,-5.719 2.023,-7.207 -3.589,-9.243c-3.254,-1.181 -7.766,-1.138 -8.448,-1.132c-2.022,0.019 -3.065,-0.576 -3.322,1.453c-1.105,8.706 -0.405,12.553 1.243,19.477c0.331,1.389 0.348,1.364 1.087,2.592l108.956,-141.372l-10.237,73.128c-7.162,-0.349 -8.435,-3.411 -8.732,-4.124c-0.447,-1.076 -0.724,-0.084 -0.64,0.231c0.243,0.909 2.262,18.667 2.559,22.139c0.288,3.354 0.269,6.143 2.3,6.65c1.094,0.273 1.116,0.068 13.987,1.687c1.196,0.15 0.6,-0.62 0.746,-4.383c-0.041,-7.175 -0.07,-7.181 -0.559,-9.202c-0.073,-0.303 -0.742,-4.79 -1.557,-7.375c-0.543,-1.724 -0.416,-1.743 -0.936,-3.461c-0.478,-1.581 -0.53,-1.894 -2.181,-1.844c-0.189,0.006 -1.256,0.254 -4.987,-0.318l10.237,-73.128l-75.02,150.328c1.871,1.01 1.838,1.028 3.729,2.028c0.197,0.103 0.187,0.102 3.157,1.855c2.749,1.735 2.973,1.683 3.034,1.422c0.118,-0.508 -3.871,-7.992 -3.495,-13.158c0.017,-0.234 0.08,-1.104 -0.292,-2.917c-0.727,-3.538 -1.445,-3.461 -1.062,-5.494c0.01,-0.051 0.004,-0.993 0.498,-3.431c0.378,-1.861 -1.216,-2.182 1.09,-6.814c3.354,-6.737 3.31,-6.751 4.047,-7.991c0.973,-1.635 0.548,-1.823 1.536,-3.442c0.437,-0.716 -0.063,-0.736 -4.645,-5.981c-0.396,-0.453 -2.746,-3.576 -3.141,-2.648c-1.982,4.655 -5.284,15.01 -6.49,20.3c-0.181,0.792 -0.337,0.724 -0.454,1.54c-0.252,1.762 -0.329,2.09 -0.643,2.679c-0.098,0.185 0.105,0.225 -0.403,2.584c-0.594,2.755 -0.445,8.194 0.065,12.404c0.192,1.584 0.017,1.584 0.389,3.13c0.414,1.724 0.082,2.018 1.678,3.013c0.114,0.071 0.084,0.08 1.401,0.921l75.02,-150.328l-15.263,0.129c3.284,-0.818 9.364,-0.973 5.007,-1.443c-1.322,-0.142 -1.741,-0.386 -2.12,-0.441c-0.925,-0.134 -10.443,-1.513 -11.579,-1.57c-6.555,-0.328 -6.537,-0.522 -7.107,-0.525c-5.082,-0.033 -9.67,-0.257 -10.533,-0.26c-2.386,-0.008 -2.354,0.109 -4.741,0.136c-8.561,0.095 -8.527,0.548 -9.744,0.523c-2.502,-0.052 -12.823,1.292 -13.98,1.52c-5.536,1.093 -8.843,1.526 -8.716,2.205c0.029,0.155 0.091,0.109 1.099,0.509c5.955,2.363 7.227,2.585 10.249,3.256c6.399,1.421 7.946,1.103 8.454,1.195c8.273,1.49 40.086,-4.924 43.711,-5.104l15.263,-0.129l14.633,145.351c-0.45,-1.779 -1.034,1.58 -5.321,4.604c-2.174,1.533 -1.111,2.079 -0.439,4.662c0.754,2.898 0.951,2.805 2.31,5.446c1.613,3.119 1.315,3.773 2.093,6.345c2.313,7.651 0.398,12.82 4.573,27.182c2.454,8.441 2.182,13.361 2.611,15.798c0.033,0.187 0.354,2.012 0.398,2.345c0.182,1.376 -0.329,2.562 1.794,2.046c2.543,-0.618 1.891,-7.146 1.831,-7.299c-0.547,-1.402 -0.782,-5.469 -1.059,-7.643c-0.492,-7.819 -0.895,-7.757 -1.418,-15.547c-0.426,-6.348 -0.794,-7.788 -1.028,-10.79c-0.197,-2.522 -5.31,-20.15 -5.523,-20.763c-0.488,-1.022 -0.722,-2.31 -0.821,-6.386l-14.633,-145.351l-54.057,93.97c6.302,-13.085 6.449,-13.239 5.967,-14.221c-0.337,-0.688 -2.3,-4.689 -5.165,-8.061c-0.378,-0.444 -0.608,-0.054 -4.262,5.915c-7.093,11.584 -9.994,19.898 -11.386,22.505c-0.525,0.984 0.116,0.955 3.496,4.805c3.863,4.4 3.931,4.68 4.346,4.41c0.033,-0.021 1.746,-3.877 1.896,-4.215c0.199,-0.448 1.906,-4.289 2.576,-5.554c0.176,-0.328 2.072,-4.676 2.532,-5.583l54.057,-93.97l-53.022,47.868c0.471,-1.508 0.512,-1.501 0.481,-4.425c-0.101,-9.695 0.522,-11.419 0.569,-12.644c0.012,-0.317 0.096,-2.486 0.359,-3.946c0.652,-3.62 0.411,-3.649 0.482,-3.96c0.228,-0.993 0.003,-1.176 -0.999,-1.161c-5.197,0.076 -9.222,-0.364 -10.533,-0.385c-1.04,-0.016 -0.379,7.582 -0.966,11.844c-0.63,4.577 -0.749,13.655 1.146,19.238c0.063,0.184 0.499,1.471 2.427,0.196c3.581,-2.367 4.278,-1.432 7.033,-4.757l53.022,-47.868l-9.984,59.377c-3.671,0.529 -9.408,0.548 -9.149,1.433c0.67,2.283 0.469,2.35 1.61,4.438c0.054,0.1 0.563,1.67 1.829,3.415c0.865,1.193 5.399,2.222 12.286,2.054c1.461,-0.036 13.233,-1.067 13.934,-1.504c0.684,-0.426 0.688,-1.009 0.427,-4.95c-0.02,-0.3 -0.129,-0.276 -0.735,-3.682c-0.054,-0.306 -0.927,-2.243 -1.228,-2.411c-1.09,-0.604 -16.047,1.013 -18.975,1.207l9.984,-59.377l11.363,79.258c-0.052,-0.263 -0.836,-5.068 -1.056,-5.794c-0.376,-1.242 -0.165,-1.274 -0.246,-1.348c-0.323,-0.296 -0.364,0.429 -10.589,1.246c-0.8,0.064 -0.319,0.562 1.961,9.836c1.318,5.361 0.795,7.509 1.238,12.658c0.147,1.71 -0.275,4.317 0.745,4.573c3.172,0.795 7.531,0.85 8.189,0.858c0.134,-0.017 1.529,0.404 1.22,-1.996c-1.326,-10.307 0.265,-11.627 -1.463,-20.032l-11.363,-79.258l-12.097,2.484c-0.673,0.069 -14.961,2.385 -15.313,2.737c-0.341,0.341 0.094,4.472 0.363,5.552c0.302,1.215 -0.186,4.337 1.271,4.046c0.649,-0.13 8.457,-1.397 9.193,-1.516c6.96,-1.129 6.915,-1.301 13.958,-1.85c2.239,-0.175 2.225,-0.478 2.216,-0.663c-0.04,-0.826 -1.695,-8.774 -2.426,-9.056c-1.336,-0.516 -4.738,0.61 -9.262,0.751l12.097,-2.484l-44.877,13.95c-0.307,-3.555 -0.705,-4.652 -0.845,-5.036c-0.674,-1.857 -1.826,-0.578 -7.203,-0.309c-1.881,0.094 -9.94,-0.449 -10.8,-0.68c-0.783,-0.21 -0.782,-0.167 -3.417,-0.259c-1.972,-0.069 -1.605,8.733 -1.372,9.215c0.239,0.495 10.969,3.404 22.997,1.37c0.823,-0.139 0.602,-1.845 0.64,-4.301l44.877,-13.95l-105.462,89.033c-1.055,4.869 -1.224,5.35 -0.38,5.406c3.396,0.225 3.383,-0.388 3.785,-1.428c0.21,-0.544 3.594,-8.498 3.908,-9.236c0.314,-0.738 3.395,-7.981 3.983,-9.203c0.662,-1.376 1.698,-4.372 1.831,-4.758c0.033,-0.096 0.758,-1.33 0.178,-1.291c-0.507,0.034 0.159,1.315 -5.537,3.101c-2.364,0.741 -3.284,-0.143 -3.582,1.857c-0.218,1.461 -3.613,13.165 -4.187,15.552l105.462,-89.033l-35.288,16.722c5.1,-1.212 6.632,-0.487 6.104,-3.044c-0.452,-2.188 -0.847,-7.952 -1.609,-7.925c-1.922,0.069 -4.262,0.758 -6.846,0.949c-1.35,0.1 -1.306,0.4 -3.949,0.528c-1.824,0.088 -1.163,0.93 -0.931,2.756c0.384,3.028 0.488,3.004 0.521,6.069c0.012,1.185 -0.007,1.574 1.181,1.484c2.789,-0.213 2.728,-0.567 5.53,-0.817l35.288,-16.722l-94.681,54.285c-0.584,1.63 -1.015,2.253 0.665,2.633c0.634,0.143 1.809,0.555 1.821,-0.045c0.052,-2.722 0.171,-2.703 1.115,-5.249c1.355,-3.654 5.761,-19.229 9.479,-30.027c1.574,-4.572 1.549,-4.689 1.251,-4.971c-0.166,-0.157 -0.184,-0.129 -2.301,-1.154c-1.327,-0.643 -1.149,0.241 -1.559,1.656c-2.62,9.056 -6.373,26.486 -10.472,37.158l94.681,-54.285l-83.339,6.857c-0.694,4.675 0.31,4.8 3.568,6.278c0.639,0.29 7.916,3.591 8.298,2.849c0.148,-0.287 -0.176,-4.274 1.001,-8.858c0.257,-1.002 -0.414,-0.693 -3.739,-1.984c-3.47,-1.348 -3.425,-1.393 -6.915,-2.711c-1.155,-0.436 -1.138,0.091 -1.476,1.269c-0.322,1.122 -0.685,2.903 -0.737,3.158l83.339,-6.857l11.475,106.651c0.039,-0.788 -0.006,-0.768 0.186,-1.562c0.226,-0.933 -0.149,-0.93 -1.113,-0.972c-0.806,-0.035 -3.377,-0.31 -4.463,-0.303c-0.474,0.003 -0.342,0.754 -0.392,1.519c-0.266,4.092 -0.306,4.064 -0.422,8.168c-0.086,2.917 -0.112,2.913 -0.06,3.175c0.573,2.92 -0.265,3.611 2.243,4.86c0.308,0.161 3.654,1.901 3.895,1.929c0.693,0.081 -0.05,-1.577 -0.103,-2.048c-0.638,-5.719 -0.549,-5.723 0.229,-14.767l-11.475,-106.651l-8.935,103.367c-19.055,-1.97 -28.373,6.547 -28.399,6.721c-0.32,2.113 1.366,1.046 1.486,0.97c8.842,-5.6 17.309,-5.886 25.856,-5.858c5.953,0.02 11.642,1.763 12.62,2.063c0.872,0.267 1.155,-2.067 0.047,-2.283c-7.668,-1.492 -10.672,-1.584 -11.609,-1.613l8.935,-103.367l-13.941,112.561c1.171,0.005 8.273,0.032 14.443,2.367c1.444,0.546 2.379,1.158 2.41,0.68c0.139,-2.14 -0,-2.486 -2.083,-2.982c-1.042,-0.248 -7.702,-2.498 -17.663,-1.892c-11.417,0.695 -18.924,6.064 -18.517,7.535c0.326,1.18 0.708,0.726 0.76,0.664c1.724,-2.05 7.818,-4.338 8.546,-4.611c4.434,-1.665 11.126,-1.749 12.104,-1.762l13.941,-112.561l-100.069,69.396c0.427,-0.086 4.118,-0.758 5.481,-2.293c1.116,-1.256 1.423,-0.96 2.295,-2.405c2.187,-3.626 2.557,-4.114 1.693,-4.282c-0.938,-0.183 -2.99,-0.942 -6.823,-1.256c-1.482,-0.121 -3.973,7.959 -4.116,9.053c-0.185,1.409 0.518,1.194 1.47,1.183l100.069,-69.396l-8.138,108.923c10.056,1.561 9.919,2.181 10.793,2.309c0.539,0.079 0.429,-1.531 0.42,-1.668c-0.049,-0.716 -2.071,-0.966 -3.595,-1.263c-16.917,-3.291 -27.414,1.141 -30.042,2.238c-0.455,0.19 -5.546,2.752 -5.695,3.767c-0.289,1.963 0.906,0.228 3.661,-1.251c6.794,-3.647 14.355,-4.76 24.458,-4.131l8.138,-108.923l-101.642,103.635c-0.464,-0.006 -4.865,-0.066 -5.803,0.007c-0.808,0.063 -1.01,0.906 -0.913,1.111c0.538,1.133 2.378,-1.356 13.01,1.458c11.222,2.97 17.775,9.802 18.332,8.543c0.837,-1.893 -0.005,-1.971 -0.315,-2.172c-5.56,-3.6 -5.829,-3.291 -8.821,-4.776c-1.15,-0.57 -8.08,-4.007 -15.489,-4.172l101.642,-103.635l-10.781,114.696c-12.48,-0.273 -16.215,1.364 -23.098,6.042c-1.301,0.884 -0.691,2.678 0.113,1.904c0.568,-0.546 4.13,-3.972 8.483,-5.004c8.943,-2.121 9.04,-2.683 18.461,-1.031c1.668,0.292 9.002,2.883 9.201,2.972c1.003,0.449 0.919,-0.235 0.709,-1.326c-0.226,-1.173 -11.153,-3.479 -13.868,-3.557l10.781,-114.696l-107.704,111.27c11.385,-0.222 18.497,4.959 23.785,8.441c2.614,1.721 4.29,4.366 4.605,2.731c0.085,-0.442 0.75,-1.302 0.013,-1.757c-3.356,-2.068 -3.701,-3.256 -10.448,-6.478c-12.828,-6.125 -19.917,-4.036 -20.124,-3.641c-0.765,1.46 0.545,0.786 2.169,0.703l107.704,-111.27l-106.118,100.193c-0.129,0.019 -1.322,0.194 -1.09,1.21c0.173,0.758 2.852,-1.047 13.998,1.549c3.714,0.865 13.677,5.551 16.636,7.849c0.759,0.59 1.414,-1.1 0.92,-1.399c-3.204,-1.94 -4.764,-3.394 -10.712,-5.648c-7.981,-3.025 -10.687,-3.601 -19.753,-3.561l106.118,-100.193l-100.874,107.04c-0.582,-0.097 -4.61,-0.77 -7.373,-0.187c-0.087,0.018 -2.582,1.642 0.277,1.082c0.859,-0.168 0.862,-0.061 5.278,0.196c2.345,0.137 12.026,2.577 18.491,6.859c2.695,1.785 2.618,1.847 5.273,3.662c0.769,0.526 1.629,-1.272 0.661,-1.886c-5.978,-3.79 -12.204,-8.075 -22.608,-9.727l100.874,-107.04Z" style="fill:#0c0d0c;"/><path d="M181.541,153.155c-3.267,-0.565 -6.01,-1.045 -14.202,1.007c-6.096,1.527 -6.133,3.823 -6.143,4.428c-0.182,11.064 7.04,20.922 7.832,22.333c-0.073,0.095 -0.741,0.965 -1.173,0.923c-0.415,-0.04 -0.325,0.123 -0.542,0.466c-3.935,-3.869 -6.684,-11.693 -7.226,-14.482c-0.439,-2.263 -0.696,-2.186 -1.043,-4.482c-1.158,-7.656 0.739,-8.106 2.831,-9.926c3.581,-3.115 23.317,-6.188 25.013,0.674c0.303,1.227 0.375,1.187 0.634,2.411c0.719,3.39 -0.256,4.01 2.378,12.906c3.431,11.588 5.333,16.817 2.472,18.454c-3.969,2.272 -6.236,2.1 -11.348,2.619c-1.006,0.102 -10.173,-0.232 -13.361,-2.494c-2.06,-1.462 -2.238,-1.429 -2.604,-3.071c-0.01,-0.045 -0.62,-1.411 -0.558,-1.543c0.384,-0.816 0.262,0.504 1.474,1.118c1.085,0.549 2.662,3.205 14.257,3.359c4.08,0.054 11.19,-1.008 10.9,-3.461c-0.369,-3.117 -4.658,-16.006 -5.662,-20.792c-0.628,-2.995 -0.105,-3.04 -0.527,-6.06c-0.427,-3.051 -0.36,-3.593 -3.403,-4.388Z" style="fill:#0d0e0d;"/><path d="M204.858,174.904c1.38,0.543 0.605,1.071 1.008,2.915c0.256,1.17 -0.109,2.216 0.968,2.099c1.633,-0.177 0.007,1.477 -0.236,1.282c-0.134,-0.108 -0.134,-0.355 -0.29,-0.427c-0.059,-0.027 -0.045,0.037 -0.628,0.517c-0.488,-1.022 -0.722,-2.31 -0.821,-6.386Z" style="fill:#141512;"/><path d="M169.028,180.923c1.548,2.235 0.9,3.116 -0.114,2.677c-0.318,-0.138 -0.287,-0.174 -1.601,-1.288c0.216,-0.343 0.127,-0.506 0.542,-0.466c0.432,0.042 1.1,-0.828 1.173,-0.923Z" style="fill:#242824;"/><path d="M98.379,239.633c1.266,0.632 1.258,0.608 2.596,1.062c-0.065,0.054 -0.183,-0.102 -0.248,-0.048c-0.003,0.002 -0.319,1.121 -1.518,0.551c-1.46,-0.694 -1.454,-0.663 -1.573,-0.734c-0.529,-0.313 0.661,-0.796 0.744,-0.83Z" style="fill:#151614;"/><path d="M204.541,141.225c-0.165,1.964 -0.174,1.938 -0.2,3.933c-0.178,-0.174 -0.357,-0.349 -0.535,-0.523c-0.01,-0.232 0.087,-0.23 -0.021,-2.897c-0.023,-0.572 0.179,-0.524 0.756,-0.513Z" style="fill:#383939;"/><path d="M204.342,145.158c-0.064,1.592 -0.045,1.576 -0.302,3.151c-0.244,-0.545 -0.097,-0.944 -0.573,-1.594c-0.1,-0.136 -0.299,-0.409 0.34,-2.08c0.178,0.174 0.357,0.349 0.535,0.523Z" style="fill:#3b3b3a;"/><path d="M147.22,129.11c0.42,0.324 0.388,0.56 0.884,0.355c0.387,-0.16 0.226,0.142 0.425,0.521c0.56,1.067 -0.262,1.134 -0.871,1.458c-0.23,-1.178 -0.251,-1.156 -0.437,-2.334Z" style="fill:#161817;"/><path d="M133.043,96.478c0.236,-0.111 0.394,-0.353 0.63,-0.464c0.212,-0.1 0.198,0.518 0.741,0.509c1.018,-0.017 1.059,-0.41 1.05,-0.322c-0.025,0.238 -0.751,0.299 -0.069,0.83c0.804,0.626 0.063,0.876 -0.169,0.662c-0.639,-0.586 -0.501,-0.67 -0.56,-0.713c-0.231,-0.166 -0.227,0.011 -0.814,0.537c-0.347,-0.46 -0.743,-0.957 -0.809,-1.039Z" style="fill:#141615;"/><path d="M191.047,114.824c-0.509,0.262 -0.7,0.348 -0.838,-0.212c-0.1,-0.407 0.14,-0.406 0.02,-0.79c-0.056,-0.182 -0.167,-0.344 -0.221,-0.526c-0.187,-0.636 1.098,-0.494 0.992,0.254c-0.049,0.347 -0.018,0.328 0.046,1.275Z" style="fill:#1b1e1a;"/><path d="M199.726,81.419c-0.075,0.041 -0.182,-0.048 -0.257,-0.007c-0.638,0.346 0.253,0.668 -0.071,1.826c-0.209,0.747 -0.685,0.404 -0.584,0.017c0.214,-0.823 -0.394,-0.919 -0.287,-1.208c0.291,-0.785 0.414,-0.951 1.2,-0.628Z" style="fill:#222;"/><path d="M170.407,220.23c1.744,-0.63 0.786,1.215 0.776,1.309c-0.049,0.484 -0.122,0.439 -0.432,0.79c-0.114,-0.778 -0.315,-1.931 -0.344,-2.099Z" style="fill:#171717;"/><path d="M81.269,170.925c0.107,0.168 0.215,0.335 0.322,0.503c-0.053,0.052 -0.657,0.651 -0.657,0.651c-0.093,0.024 -0.848,-0.194 0.335,-1.154Z" style="fill:#3f3f41;fill-opacity:0.98;"/><path d="M124.4,48.77c-0.734,0.141 -0.763,0.066 -0.754,0.006c0.006,-0.045 0.286,-0.458 0.312,-0.497c0.208,-0.308 1.584,0.234 0.936,0.444c-0.157,0.051 -0.336,-0.004 -0.493,0.047Z" style="fill:#191918;"/><path d="M99.905,130.939c-0.522,0.206 -0.52,0.3 -1.052,0.099c-0.285,-0.108 -0.23,-0.203 -0.027,-0.406c0.453,-0.451 0.495,-0.067 1.079,0.306Z" style="fill:#1a1816;"/><path d="M187.129,132.43c0.1,0.014 1.624,0.23 1.105,0.617c-0.429,0.32 -0.838,-0.086 -0.889,-0.137c-0.125,-0.124 -0.092,-0.356 -0.216,-0.48Z" style="fill:#26292b;"/><path d="M123.079,231.251c-0.039,-0.09 -0.73,-1.664 -0.018,-1.228c0.895,0.548 0.096,1.168 0.018,1.228Z" style="fill:#181b19;"/><path d="M91.248,147.334c-0.109,0.025 -1.537,0.356 -1.353,-0.334c0.059,-0.22 0.753,-0.347 0.823,-0.257c0.17,0.221 -0.191,0.272 -0.011,0.491c0.028,0.034 0.04,0.007 0.541,0.1Z" style="fill:#141b1c;"/><path d="M142.831,114.328c0.31,0.279 0.495,0.225 0.352,0.501c-0.187,0.361 -0.979,0.616 -0.637,-0.239c0.095,-0.087 0.19,-0.174 0.285,-0.262Z" style="fill:#242424;"/><path d="M176.088,143.172c-0.62,0.13 -0.924,0.507 -0.948,-0.118c-0.013,-0.338 0.044,-0.353 0.365,-0.353c0.269,0 0.269,0.001 0.287,0.015c0.217,0.175 0.061,0.266 0.296,0.455Z" style="fill:#1f231f;"/><path d="M198.7,187.032c-0.286,-0.804 -0.276,-0.971 0.044,-0.943c0.693,0.062 0.394,0.406 -0.044,0.943Z" style="fill:#1c1c1c;"/><path d="M136.655,124.386c-0.005,0.249 -0.009,0.498 -0.014,0.747c-0.016,0.034 -0.721,1.409 -0.467,-0.015c0.08,-0.452 0.465,-0.525 0.473,-0.533c0.045,-0.049 -0.037,-0.151 0.009,-0.199Z" style="fill:#383733;"/><path d="M145.316,37.112c0.264,0.14 0.915,0.378 0.072,0.961c-0.282,0.195 -0.125,-0.65 -0.072,-0.961Z" style="fill:#181a12;"/><path d="M195.194,54.846c0.062,0.055 1.051,0.94 0.319,0.986c-0.083,0.005 -0.171,0.011 -0.319,-0.986Z" style="fill:#191919;"/><path d="M178.395,101.736c-0.042,-0.021 -0.9,-0.453 -0.013,-0.582c1.015,-0.147 0.051,0.554 0.013,0.582Z" style="fill:#2f2f2e;"/><path d="M202.916,98.549c-0.026,0.033 -0.71,0.908 -0.522,0.004c0.225,-1.084 0.511,-0.045 0.522,-0.004Z" style="fill:#242726;"/><path d="M128.148,188.911c0.033,-0.029 0.387,-0.33 0.466,-0.292c0.476,0.228 0.092,0.949 -0.361,0.563c-0.074,-0.063 -0.032,-0.208 -0.106,-0.271Z" style="fill:#1d1d1d;"/><path d="M125.454,115.545c0.135,-0.003 0.118,-0.066 0.263,-0.005c0.433,0.183 0.638,0.338 0.237,0.592c-0.431,0.271 -0.3,-0.114 -0.5,-0.587Z" style="fill:#2f3031;"/><path d="M134.403,101.946c0.301,0.25 0.326,0.236 0.325,0.27c0,0 -0.305,0.446 -0.332,0.485l-0.211,0.036c-0.003,-0.435 0.035,-0.411 0.218,-0.791Z" style="fill:#2d3030;"/><path d="M127.824,143.207c0.735,-1.264 0.733,0.054 0.708,0.106c-0.005,0.01 -0.014,-0.026 -0.132,0.05c-0.04,0.026 -0.042,-0.011 -0.576,-0.156Z" style="fill:#2a2a2a;"/><path d="M172.519,227.038c-0.045,-0.075 0.148,-0.167 0.103,-0.242c-0.193,-0.324 -0.453,0.081 -0.628,-0.254c-0.311,-0.597 0.946,0.011 0.906,0.218c-0.03,0.154 -0.351,0.123 -0.381,0.278Z" style="fill:#1a1d1b;"/><path d="M92.763,143.041c-0.47,0.276 -0.748,0.554 -0.74,0.013c0.003,-0.202 0.454,-0.318 0.51,-0.29c0.108,0.053 0.123,0.224 0.23,0.277Z" style="fill:#323636;"/><path d="M99.905,130.939c0.632,-0.465 1.249,0.041 0.788,0.236c-0.215,0.091 -0.195,0.012 -0.788,-0.236Z" style="fill:#282825;"/><path d="M173.926,75.462c0.436,0.935 -0.195,0.712 -0.232,0.669c-0.25,-0.287 -0.026,-0.301 0.232,-0.669Z" style="fill:#313331;"/><path d="M143.425,106.184c-0.705,0.982 -0.788,0.08 -0.759,0.026c0.028,-0.054 0.052,-0.1 0.759,-0.026Z" style="fill:#2f2e2a;"/><path d="M176.852,131.743c0.02,-0.016 -0.011,-0.244 0.473,-0.206c0.447,0.035 0.246,0.435 0.227,0.443c-0.137,0.061 -0.312,-0.082 -0.45,-0.022l-0.25,-0.215Z" style="fill:#29302e;"/><path d="M178.923,247.111c-0.037,-0.029 -0.912,-0.709 0.005,-0.581c0.425,0.06 0.263,0.254 -0.005,0.581Z" style="fill:#3b3f3d;"/><path d="M201.567,131.324c0.429,0.111 0.449,0.084 0.463,0.119c0.166,0.418 -0.882,0.437 -0.683,0.017c0.037,-0.078 0.183,-0.058 0.22,-0.136Z" style="fill:#4b4b4b;"/><path d="M202.211,140.391c0.054,0.91 -0.348,0.665 -0.381,0.617c-0.169,-0.241 -0.132,-0.3 -0.118,-0.324c0.166,-0.268 0.335,-0.028 0.499,-0.294Z" style="fill:#2b2b2b;"/><path d="M81.321,125.936c0.381,-1.02 0.488,0.005 0.476,0.042c-0.104,0.323 -0.202,0.122 -0.476,-0.042Z" style="fill:#151917;"/><path d="M203.159,197.638c-0.267,-0.261 -0.486,-0.26 -0.244,-0.562c0.024,-0.03 0.368,-0.458 0.426,0.232c0.011,0.125 -0.193,0.205 -0.183,0.33Z" style="fill:#646462;"/><path d="M92.059,147.525c0.07,0.146 0.263,0.207 0.332,0.352c0.036,0.075 -0.195,0.32 -0.263,0.288c-0.625,-0.293 -0.068,-0.627 -0.069,-0.64Z" style="fill:#141415;"/><path d="M189.91,85.902c0.142,0.001 0.194,-0.262 0.336,-0.261c0.113,0.001 0.299,0.392 0.213,0.51c-0.226,0.31 -0.257,0.027 -0.549,-0.249Z" style="fill:#313130;"/><path d="M172.114,139.28c-0.186,0.115 -0.011,0.425 -0.633,0.392c-0.059,-0.003 -0.205,-0.282 0.633,-0.392Z" style="fill:#1a1a18;"/><path d="M191.02,35.604c0.18,0.321 0.601,0.311 0.273,0.487c-0.336,0.181 -0.201,-0.102 -0.273,-0.487Z" style="fill:#0f100b;"/><path d="M113.559,141.198c0.003,0.044 0.059,0.807 -0.133,0.54c-0.026,-0.036 0.01,-0.039 0.133,-0.54Z" style="fill:#141214;"/><path d="M178.837,100.72c-0.539,-0.217 -0.471,-0.297 -0.442,-0.331c0.235,-0.276 0.156,0.117 0.442,0.331Z" style="fill:#181b19;"/><path d="M203.368,95.373c0.048,-0.073 -0.034,-0.188 0.014,-0.261c0.065,-0.099 0.172,-0.21 0.291,-0.206c0.411,0.013 -0.082,0.125 -0.305,0.467Z" style="fill:#0a0a0a;"/></g></svg>